<?xml version="1.0" encoding="UTF-8"?>
<svg version="1.1" xmlns="http://www.w3.org/2000/svg" width="896" height="898">
<path d="M0 0 C295.68 0 591.36 0 896 0 C896 296.34 896 592.68 896 898 C600.32 898 304.64 898 0 898 C0 601.66 0 305.32 0 0 Z " fill="#000000" transform="translate(0,0)"/>
<path d="M0 0 C3.59869195 0.30538641 3.59869195 0.30538641 7.21240234 0.21484375 C20.2832668 0.27535312 31.08065578 5.35150069 42.91186523 10.50585938 C44.9610606 11.37655241 47.01118743 12.24505661 49.06225586 13.11132812 C53.70840893 15.08231138 58.34941419 17.06317796 62.96688843 19.10058594 C64.79224925 19.90165316 66.62545657 20.6849849 68.46450806 21.45410156 C74.27699471 23.94925395 78.86714088 26.55938836 83.39624023 30.97460938 C83.96014465 31.51380005 84.52404907 32.05299072 85.1050415 32.60852051 C86.27533149 33.74012289 87.43785227 34.87981442 88.5925293 36.02734375 C90.35578343 37.76217411 92.16550362 39.43664708 93.98217773 41.11523438 C95.12344261 42.23171961 96.26158197 43.35141063 97.39624023 44.47460938 C97.93561218 44.96054565 98.47498413 45.44648193 99.03070068 45.94714355 C101.50006055 48.50970035 102.58043528 50.32428631 102.65409565 53.94922924 C102.55452659 54.97847672 102.45495752 56.00772421 102.35237122 57.06816101 C102.24117132 58.22823103 102.12997143 59.38830105 102.01540184 60.5835247 C101.31683804 66.74971304 100.51125123 72.89695172 99.64990234 79.04223633 C99.45237805 80.4726609 99.25519898 81.90313317 99.05833435 83.33364868 C98.52883479 87.17415382 97.99457722 91.01398295 97.45938945 94.85369897 C96.89869965 98.88247851 96.34248986 102.91187656 95.78578186 106.94120789 C94.73354941 114.55210236 93.67735424 122.16244127 92.61969429 129.77258319 C91.41465442 138.44459973 90.21409431 147.11723462 89.01388919 155.7899214 C86.54732567 173.61258779 84.07520545 191.43447941 81.59936523 209.25585938 C57.38630617 207.0195623 34.0483194 201.00458443 11.03686523 193.31835938 C10.38166145 193.1017503 9.72645767 192.88514122 9.05139923 192.66196823 C-13.48139876 185.20885391 -34.84137448 175.99823483 -56.02563477 165.31835938 C-56.99583998 164.83140532 -56.99583998 164.83140532 -57.98564529 164.3346138 C-73.75179582 156.41270611 -88.813308 147.80945767 -103.2966156 137.70056152 C-107.28253859 134.96367034 -111.39864165 132.44118846 -115.51391602 129.90429688 C-116.1365332 129.3603125 -116.75915039 128.81632813 -117.40063477 128.25585938 C-117.40063477 124.03911123 -117.29597136 123.63044033 -114.83032227 120.59570312 C-114.27086914 119.89445313 -113.71141602 119.19320312 -113.13500977 118.47070312 C-112.21461914 117.34341797 -112.21461914 117.34341797 -111.27563477 116.19335938 C-109.97916809 114.56880725 -108.68496312 112.94244805 -107.39282227 111.31445312 C-106.39460449 110.05930908 -106.39460449 110.05930908 -105.3762207 108.77880859 C-102.29109849 104.8389108 -99.34553945 100.80102594 -96.40063477 96.75585938 C-91.2768678 89.74201399 -86.01201838 82.85876125 -80.65063477 76.02539062 C-76.46635591 70.67362325 -72.40891639 65.24040543 -68.40063477 59.75585938 C-63.83380961 53.5070562 -59.17814164 47.34511332 -54.40063477 41.25585938 C-50.16748494 35.8599585 -46.00422084 30.42436887 -41.95068359 24.8918457 C-40.75849122 23.27018595 -39.55529208 21.65655615 -38.34082031 20.05151367 C-35.68719946 16.52453991 -33.24024057 13.11508595 -31.24829102 9.16992188 C-24.50017721 -3.33817737 -12.66558606 -1.07590238 0 0 Z " fill="#000066" transform="translate(301.400634765625,679.744140625)"/>
</svg>